<svg width="10" height="2" viewBox="0 0 10 2" fill="none" xmlns="http://www.w3.org/2000/svg">
<path d="M0.178 1.033C0.161333 1.033 0.147667 1.02833 0.137 1.019C0.127 1.01033 0.122 1.00067 0.122 0.99C0.122 0.978 0.123667 0.969 0.127 0.963C0.131 0.956333 0.139333 0.951667 0.152 0.949C0.183333 0.941667 0.215667 0.933 0.249 0.923C0.283 0.912333 0.314667 0.901333 0.344 0.89C0.373333 0.878 0.397 0.866333 0.415 0.855C0.433667 0.843667 0.443 0.833667 0.443 0.825C0.443 0.817 0.435667 0.809333 0.421 0.802C0.406333 0.794 0.387667 0.785333 0.365 0.776C0.342333 0.766667 0.318 0.756333 0.292 0.745C0.266 0.733667 0.241667 0.720667 0.219 0.706C0.196333 0.691333 0.177667 0.674667 0.163 0.656C0.148333 0.636667 0.141 0.614667 0.141 0.59C0.141 0.551333 0.150333 0.515333 0.169 0.482C0.188333 0.448 0.213333 0.416667 0.244 0.388C0.274667 0.359333 0.308333 0.333 0.345 0.309C0.382333 0.284333 0.419 0.262667 0.455 0.244C0.491667 0.224667 0.524333 0.207667 0.553 0.193C0.562333 0.187667 0.571333 0.184 0.58 0.182C0.588667 0.18 0.596333 0.179 0.603 0.179C0.622333 0.179 0.636333 0.183333 0.645 0.192C0.653667 0.200667 0.658 0.210667 0.658 0.222C0.658 0.231333 0.653 0.242333 0.643 0.255C0.633 0.267 0.618667 0.277667 0.6 0.287C0.581333 0.296333 0.559 0.301 0.533 0.301H0.525C0.502333 0.313 0.477667 0.327333 0.451 0.344C0.424333 0.360667 0.398 0.379 0.372 0.399C0.346 0.419 0.322 0.439667 0.3 0.461C0.278667 0.481667 0.261333 0.501667 0.248 0.521C0.235333 0.540333 0.229 0.558 0.229 0.574C0.229 0.593333 0.236333 0.610667 0.251 0.626C0.265667 0.641333 0.284333 0.655 0.307 0.667C0.330333 0.679 0.354667 0.690667 0.38 0.702C0.406 0.713333 0.430333 0.725 0.453 0.737C0.476333 0.748333 0.495333 0.761 0.51 0.775C0.524667 0.788333 0.532 0.804 0.532 0.822C0.532 0.842667 0.524667 0.862333 0.51 0.881C0.496 0.899667 0.477333 0.917 0.454 0.933C0.430667 0.948333 0.405 0.962333 0.377 0.975C0.349667 0.987 0.322667 0.997333 0.296 1.006C0.269333 1.01467 0.245333 1.02133 0.224 1.026C0.203333 1.03067 0.188 1.033 0.178 1.033ZM1.73345 0.233C1.67679 0.250333 1.62612 0.281333 1.58145 0.326C1.53745 0.37 1.50312 0.432667 1.47845 0.514C1.54512 0.512667 1.60312 0.507667 1.65245 0.499C1.70179 0.490333 1.74212 0.481667 1.77345 0.473C1.80479 0.464333 1.82579 0.46 1.83645 0.46C1.84312 0.46 1.84845 0.462667 1.85245 0.468C1.85712 0.473333 1.85945 0.479667 1.85945 0.487C1.85945 0.501667 1.84345 0.516 1.81145 0.53C1.77945 0.544 1.73645 0.555667 1.68245 0.565C1.62845 0.574333 1.56779 0.579 1.50045 0.579C1.48845 0.579 1.47579 0.578667 1.46245 0.578C1.46112 0.582667 1.46012 0.587667 1.45945 0.593C1.45412 0.623667 1.44745 0.660667 1.43945 0.704C1.43145 0.746667 1.42312 0.791667 1.41445 0.839C1.40579 0.886333 1.39745 0.932333 1.38945 0.977C1.38145 1.021 1.37445 1.06 1.36845 1.094C1.36245 1.12867 1.35845 1.15367 1.35645 1.169C1.35379 1.183 1.34812 1.19333 1.33945 1.2C1.33145 1.20667 1.32279 1.21 1.31345 1.21C1.30412 1.21 1.29545 1.20633 1.28745 1.199C1.27945 1.19233 1.27545 1.18133 1.27545 1.166C1.27545 1.15933 1.27712 1.14567 1.28045 1.125C1.28445 1.10433 1.28912 1.07933 1.29445 1.05C1.29979 1.02067 1.30479 0.989 1.30945 0.955C1.31479 0.921 1.31912 0.886667 1.32245 0.852C1.32645 0.817333 1.32845 0.784667 1.32845 0.754C1.32845 0.736667 1.32779 0.721 1.32645 0.707C1.29112 0.733 1.25045 0.754 1.20445 0.77C1.15845 0.786 1.10945 0.796667 1.05745 0.802C1.04279 0.835333 1.02612 0.865333 1.00745 0.892C0.988786 0.918 0.968786 0.938667 0.947453 0.954C0.926786 0.969333 0.905453 0.977 0.883453 0.977C0.86212 0.977 0.84412 0.963 0.829453 0.935C0.815453 0.907 0.808453 0.864667 0.808453 0.808C0.808453 0.767333 0.81112 0.73 0.816453 0.696C0.809786 0.674 0.806453 0.648667 0.806453 0.62C0.806453 0.583333 0.814453 0.549333 0.830453 0.518C0.84712 0.486667 0.86912 0.461333 0.896453 0.442C0.924453 0.422667 0.955453 0.413 0.989453 0.413C1.02412 0.413 1.05279 0.426 1.07545 0.452C1.09879 0.477333 1.11045 0.514667 1.11045 0.564C1.11045 0.591333 1.10812 0.619333 1.10345 0.648C1.09879 0.676 1.09212 0.704 1.08345 0.732C1.12812 0.725333 1.17045 0.714 1.21045 0.698C1.25045 0.682 1.28545 0.663 1.31545 0.641C1.30945 0.619667 1.30012 0.602333 1.28745 0.589C1.27545 0.575667 1.25945 0.567667 1.23945 0.565C1.22279 0.563 1.21445 0.552667 1.21445 0.534C1.21445 0.527333 1.21779 0.521 1.22445 0.515C1.23179 0.509 1.24012 0.506 1.24945 0.506C1.26745 0.506 1.28812 0.507 1.31145 0.509C1.33545 0.511 1.36545 0.512333 1.40145 0.513C1.41879 0.464333 1.44045 0.418333 1.46645 0.375C1.49312 0.331667 1.52179 0.293667 1.55245 0.261C1.58312 0.228333 1.61379 0.202667 1.64445 0.184C1.67512 0.165333 1.70345 0.156 1.72945 0.156C1.74879 0.156 1.76112 0.158667 1.76645 0.164C1.77245 0.169333 1.77545 0.177667 1.77545 0.189C1.77545 0.201667 1.77145 0.211333 1.76345 0.218C1.75612 0.224 1.74612 0.229 1.73345 0.233ZM0.890453 0.675C0.90112 0.695 0.916453 0.710333 0.936453 0.721C0.956453 0.731 0.976786 0.736667 0.997453 0.738C1.00612 0.71 1.01279 0.680667 1.01745 0.65C1.02279 0.619333 1.02545 0.59 1.02545 0.562C1.02545 0.545333 1.02145 0.531667 1.01345 0.521C1.00545 0.509667 0.994453 0.504 0.980453 0.504C0.95912 0.504 0.93912 0.512333 0.920453 0.529C0.902453 0.545667 0.89012 0.567 0.883453 0.593C0.887453 0.595667 0.890786 0.599667 0.893453 0.605C0.896786 0.610333 0.898453 0.618333 0.898453 0.629C0.898453 0.631667 0.897786 0.637333 0.896453 0.646C0.89512 0.654 0.89312 0.663667 0.890453 0.675ZM0.971453 0.806C0.95412 0.805333 0.93712 0.802667 0.920453 0.798C0.904453 0.793333 0.889453 0.786333 0.875453 0.777C0.87412 0.791667 0.873453 0.805 0.873453 0.817C0.873453 0.858333 0.881786 0.879 0.898453 0.879C0.911786 0.879 0.924453 0.872333 0.936453 0.859C0.94912 0.845667 0.960786 0.828 0.971453 0.806ZM1.36245 0.599C1.37045 0.590333 1.37779 0.581333 1.38445 0.572C1.38445 0.571333 1.38445 0.570667 1.38445 0.57C1.37712 0.569333 1.36945 0.568333 1.36145 0.567C1.35412 0.565667 1.34679 0.564667 1.33945 0.564C1.34812 0.574 1.35579 0.585667 1.36245 0.599ZM1.79511 1.013C1.78844 1.037 1.78078 1.052 1.77211 1.058C1.76411 1.06467 1.75544 1.068 1.74611 1.068C1.73544 1.068 1.72611 1.064 1.71811 1.056C1.71078 1.048 1.70978 1.03167 1.71511 1.007C1.72644 0.955 1.73711 0.905667 1.74711 0.859C1.75778 0.811667 1.76678 0.769333 1.77411 0.732C1.78211 0.694667 1.78844 0.664333 1.79311 0.641C1.79844 0.617 1.80178 0.602333 1.80311 0.597C1.81044 0.563667 1.81878 0.528667 1.82811 0.492C1.83744 0.455333 1.84778 0.419333 1.85911 0.384C1.87044 0.348667 1.88244 0.316667 1.89511 0.288C1.90844 0.259333 1.92211 0.236667 1.93611 0.22C1.94344 0.212667 1.95011 0.207667 1.95611 0.205C1.96211 0.201667 1.96744 0.2 1.97211 0.2C1.98144 0.2 1.98878 0.204 1.99411 0.212C2.00011 0.22 2.00311 0.229 2.00311 0.239C2.00311 0.244333 2.00211 0.249667 2.00011 0.255C1.98678 0.292333 1.97244 0.338333 1.95711 0.393C1.94178 0.447 1.92578 0.506 1.90911 0.57C1.93378 0.564667 1.96011 0.559 1.98811 0.553C2.01611 0.546333 2.04311 0.539667 2.06911 0.533C2.09578 0.526333 2.11878 0.520333 2.13811 0.515C2.15011 0.509 2.15978 0.509333 2.16711 0.516C2.17511 0.522667 2.17944 0.529667 2.18011 0.537C2.18011 0.546333 2.17811 0.553667 2.17411 0.559C2.17078 0.564333 2.16511 0.569 2.15711 0.573C2.14844 0.577667 2.13378 0.583333 2.11311 0.59C2.09244 0.596667 2.06878 0.603667 2.04211 0.611C2.01611 0.617667 1.98944 0.624333 1.96211 0.631C1.93544 0.637 1.91111 0.642 1.88911 0.646C1.87378 0.705333 1.85811 0.766333 1.84211 0.829C1.82678 0.891 1.81111 0.952333 1.79511 1.013ZM2.24545 1.029C2.22212 1.029 2.20279 1.01867 2.18745 0.998C2.17279 0.976667 2.16545 0.939 2.16545 0.885C2.16545 0.828333 2.16645 0.773333 2.16845 0.72C2.17045 0.666 2.17412 0.617667 2.17945 0.575C2.18545 0.532333 2.19345 0.498333 2.20345 0.473C2.21345 0.447667 2.22645 0.435 2.24245 0.435C2.25379 0.435 2.26379 0.441333 2.27245 0.454C2.28112 0.466 2.28545 0.482 2.28545 0.502C2.28545 0.522667 2.28345 0.550333 2.27945 0.585C2.27545 0.619667 2.27045 0.657 2.26445 0.697C2.25912 0.736333 2.25445 0.774667 2.25045 0.812C2.24645 0.848667 2.24445 0.879667 2.24445 0.905C2.24445 0.915667 2.24479 0.924333 2.24545 0.931C2.24679 0.937 2.24879 0.94 2.25145 0.94C2.26145 0.94 2.27212 0.931333 2.28345 0.914C2.29545 0.896 2.30812 0.872667 2.32145 0.844C2.33479 0.814667 2.34879 0.782667 2.36345 0.748C2.37812 0.712667 2.39312 0.677667 2.40845 0.643C2.42379 0.608333 2.43945 0.576667 2.45545 0.548C2.47145 0.518667 2.48745 0.495333 2.50345 0.478C2.51945 0.46 2.53512 0.451 2.55045 0.451C2.56845 0.451 2.58512 0.459667 2.60045 0.477C2.61645 0.493667 2.62445 0.517667 2.62445 0.549C2.62445 0.558333 2.62312 0.574667 2.62045 0.598C2.61779 0.620667 2.61445 0.646667 2.61045 0.676C2.60645 0.705333 2.60245 0.734667 2.59845 0.764C2.59445 0.792667 2.59112 0.818333 2.58845 0.841C2.58579 0.863 2.58445 0.878667 2.58445 0.888C2.58445 0.922667 2.58779 0.94 2.59445 0.94C2.61312 0.94 2.63279 0.928333 2.65345 0.905C2.67479 0.881 2.69612 0.850333 2.71745 0.813C2.73945 0.775 2.76112 0.734 2.78245 0.69C2.80445 0.645333 2.82545 0.602667 2.84545 0.562C2.85479 0.540667 2.86245 0.526333 2.86845 0.519C2.87512 0.511 2.88179 0.507 2.88845 0.507C2.89779 0.507 2.90645 0.512 2.91445 0.522C2.92312 0.532 2.92745 0.545667 2.92745 0.563C2.92745 0.569 2.92712 0.575 2.92645 0.581C2.92579 0.586333 2.92412 0.592333 2.92145 0.599C2.89879 0.659 2.87445 0.714667 2.84845 0.766C2.82245 0.816667 2.79579 0.861 2.76845 0.899C2.74179 0.936333 2.71545 0.965667 2.68945 0.987C2.66345 1.00767 2.63945 1.018 2.61745 1.018C2.57945 1.018 2.54979 1.00733 2.52845 0.986C2.50779 0.964 2.49745 0.934667 2.49745 0.898C2.49745 0.882667 2.49845 0.862667 2.50045 0.838C2.50312 0.813333 2.50612 0.786667 2.50945 0.758C2.51345 0.729333 2.51745 0.701667 2.52145 0.675C2.52545 0.648333 2.52879 0.625 2.53145 0.605C2.53479 0.585 2.53679 0.571333 2.53745 0.564C2.53812 0.554667 2.53712 0.55 2.53445 0.55C2.53179 0.55 2.52645 0.558667 2.51845 0.576C2.51112 0.592667 2.50212 0.614 2.49145 0.64C2.48145 0.665333 2.47079 0.691667 2.45945 0.719C2.44679 0.749 2.43212 0.782 2.41545 0.818C2.39945 0.853333 2.38212 0.887 2.36345 0.919C2.34545 0.951 2.32645 0.977333 2.30645 0.998C2.28645 1.01867 2.26612 1.029 2.24545 1.029ZM3.06383 1.026C3.03849 1.026 3.01749 1.01433 3.00083 0.991C2.98483 0.967 2.97683 0.936 2.97683 0.898C2.97683 0.862667 2.98549 0.827667 3.00283 0.793C3.02083 0.758333 3.04449 0.725 3.07383 0.693C3.10316 0.661 3.13516 0.631667 3.16983 0.605C3.20449 0.577667 3.23916 0.554 3.27383 0.534C3.30916 0.514 3.34149 0.498333 3.37083 0.487C3.40016 0.475667 3.42349 0.47 3.44083 0.47C3.45016 0.47 3.45783 0.472 3.46383 0.476C3.46983 0.479333 3.47283 0.485667 3.47283 0.495C3.47283 0.501 3.47049 0.506667 3.46583 0.512C3.46649 0.512 3.46716 0.512 3.46783 0.512C3.48249 0.512 3.48983 0.520667 3.48983 0.538C3.48983 0.544 3.48749 0.556333 3.48283 0.575C3.47816 0.593 3.47283 0.615667 3.46683 0.643C3.46083 0.670333 3.45549 0.700667 3.45083 0.734C3.44616 0.766667 3.44383 0.8 3.44383 0.834C3.44383 0.862667 3.45483 0.877 3.47683 0.877C3.50149 0.877 3.52649 0.871333 3.55183 0.86C3.57716 0.848667 3.60183 0.835 3.62583 0.819C3.64983 0.802333 3.67183 0.786 3.69183 0.77C3.71183 0.753333 3.72883 0.739333 3.74283 0.728C3.75683 0.716667 3.76683 0.711 3.77283 0.711C3.77816 0.711 3.78283 0.712667 3.78683 0.716C3.79083 0.719333 3.79283 0.724667 3.79283 0.732C3.79283 0.738667 3.78616 0.750667 3.77283 0.768C3.75949 0.785333 3.74183 0.805 3.71983 0.827C3.69783 0.849 3.67316 0.870333 3.64583 0.891C3.61849 0.911667 3.59049 0.928667 3.56183 0.942C3.53316 0.955333 3.50583 0.962 3.47983 0.962C3.45983 0.962 3.44149 0.956 3.42483 0.944C3.40883 0.931333 3.39583 0.91 3.38583 0.88C3.37649 0.85 3.37183 0.808667 3.37183 0.756V0.731C3.33916 0.785 3.30483 0.834333 3.26883 0.879C3.23349 0.923667 3.19816 0.959333 3.16283 0.986C3.12816 1.01267 3.09516 1.026 3.06383 1.026ZM3.42183 0.542C3.41849 0.543333 3.41383 0.545333 3.40783 0.548C3.37716 0.562 3.34516 0.579333 3.31183 0.6C3.27916 0.620667 3.24716 0.643667 3.21583 0.669C3.18516 0.694333 3.15749 0.720667 3.13283 0.748C3.10816 0.775333 3.08849 0.803 3.07383 0.831C3.05916 0.859 3.05183 0.886333 3.05183 0.913C3.05183 0.921667 3.05349 0.928333 3.05683 0.933C3.06083 0.937667 3.06749 0.94 3.07683 0.94C3.09016 0.94 3.10749 0.931667 3.12883 0.915C3.15016 0.897667 3.17349 0.875 3.19883 0.847C3.22483 0.819 3.25083 0.788 3.27683 0.754C3.30283 0.72 3.32749 0.685667 3.35083 0.651C3.37483 0.616333 3.39549 0.584333 3.41283 0.555C3.41549 0.550333 3.41849 0.546 3.42183 0.542ZM3.77225 1.019C3.76158 1.019 3.75258 1.01467 3.74525 1.006C3.73792 0.997333 3.73425 0.985333 3.73425 0.97C3.73425 0.958667 3.73658 0.94 3.74125 0.914C3.74658 0.887333 3.75225 0.856333 3.75825 0.821C3.76492 0.785667 3.77058 0.749 3.77525 0.711C3.77992 0.672333 3.78225 0.635333 3.78225 0.6C3.78225 0.582667 3.78658 0.57 3.79525 0.562C3.80458 0.553333 3.81492 0.549 3.82625 0.549C3.83692 0.549 3.84492 0.555667 3.85025 0.569C3.85558 0.582333 3.85658 0.609 3.85325 0.649C3.88392 0.581 3.91758 0.526333 3.95425 0.485C3.99158 0.443 4.02858 0.413 4.06525 0.395C4.10192 0.376333 4.13492 0.367 4.16425 0.367C4.18358 0.367 4.19758 0.371 4.20625 0.379C4.21558 0.386333 4.22025 0.394667 4.22025 0.404C4.22025 0.416667 4.21492 0.426667 4.20425 0.434C4.19425 0.440667 4.17658 0.448667 4.15125 0.458C4.12192 0.469333 4.09492 0.482667 4.07025 0.498C4.04625 0.512667 4.02325 0.532 4.00125 0.556C3.97992 0.58 3.95892 0.610667 3.93825 0.648C3.91758 0.684667 3.89692 0.73 3.87625 0.784C3.85558 0.838 3.83358 0.903 3.81025 0.979C3.80625 0.993667 3.80092 1.004 3.79425 1.01C3.78825 1.016 3.78092 1.019 3.77225 1.019ZM4.5722 0.569C4.5722 0.590333 4.56553 0.611333 4.5522 0.632C4.53886 0.652 4.5212 0.671333 4.4992 0.69C4.4772 0.708 4.45286 0.725 4.4262 0.741C4.39953 0.757 4.37286 0.771 4.3462 0.783C4.31953 0.795 4.2952 0.804667 4.2732 0.812C4.26786 0.838 4.2652 0.861 4.2652 0.881C4.2652 0.893667 4.2682 0.902667 4.2742 0.908C4.2802 0.913333 4.28953 0.916 4.3022 0.916C4.3302 0.916 4.35986 0.911 4.3912 0.901C4.42253 0.891 4.45453 0.878 4.4872 0.862C4.51986 0.846 4.5512 0.829 4.5812 0.811C4.6112 0.793 4.63853 0.776 4.6632 0.76C4.68853 0.744 4.70953 0.731 4.7262 0.721C4.74286 0.711 4.75386 0.706 4.7592 0.706C4.7672 0.706 4.7732 0.708667 4.7772 0.714C4.78186 0.718667 4.7842 0.724333 4.7842 0.731C4.7842 0.736333 4.77586 0.746667 4.7592 0.762C4.7432 0.777333 4.72153 0.795333 4.6942 0.816C4.66686 0.836 4.6362 0.856667 4.6022 0.878C4.5682 0.899333 4.53286 0.919333 4.4962 0.938C4.4602 0.956667 4.4252 0.971667 4.3912 0.983C4.35786 0.994333 4.32786 1 4.3012 1C4.26653 1 4.23953 0.987 4.2202 0.961C4.20086 0.935 4.1912 0.894667 4.1912 0.84C4.1912 0.803333 4.19586 0.766333 4.2052 0.729C4.2152 0.691667 4.22853 0.656 4.2452 0.622C4.26253 0.587333 4.28153 0.556667 4.3022 0.53C4.32353 0.502667 4.34586 0.481333 4.3692 0.466C4.39253 0.45 4.4152 0.442 4.4372 0.442C4.4792 0.442 4.5122 0.453667 4.5362 0.477C4.5602 0.500333 4.5722 0.531 4.5722 0.569ZM4.2942 0.735C4.31486 0.722333 4.3362 0.709 4.3582 0.695C4.3802 0.681 4.40053 0.666667 4.4192 0.652C4.43786 0.637333 4.45286 0.622 4.4642 0.606C4.4762 0.589333 4.4822 0.572333 4.4822 0.555C4.4822 0.530333 4.46886 0.518 4.4422 0.518C4.42553 0.518 4.40786 0.528667 4.3892 0.55C4.3712 0.570667 4.35386 0.597667 4.3372 0.631C4.32053 0.664333 4.3062 0.699 4.2942 0.735ZM5.38073 1.002C5.36406 1.002 5.34639 0.997 5.32773 0.987C5.30906 0.977 5.29173 0.960667 5.27573 0.938C5.26039 0.915333 5.24773 0.885333 5.23773 0.848C5.22773 0.810667 5.22273 0.764667 5.22273 0.71C5.22273 0.666667 5.22806 0.622667 5.23873 0.578C5.25006 0.532667 5.26739 0.49 5.29073 0.45C5.31473 0.409333 5.34539 0.374333 5.38273 0.345C5.42073 0.315 5.46673 0.294333 5.52073 0.283C5.54406 0.277667 5.57039 0.272667 5.59973 0.268C5.62973 0.262667 5.66006 0.258 5.69073 0.254C5.72206 0.249333 5.75139 0.245667 5.77873 0.243C5.80673 0.240333 5.83039 0.239 5.84973 0.239C5.88106 0.239 5.90339 0.244667 5.91673 0.256C5.93073 0.266667 5.93773 0.277 5.93773 0.287C5.93773 0.293667 5.93506 0.3 5.92973 0.306C5.92439 0.311333 5.91406 0.314667 5.89873 0.316C5.89273 0.316667 5.88006 0.318333 5.86073 0.321C5.84139 0.323 5.81806 0.326 5.79073 0.33C5.76339 0.334 5.73473 0.338333 5.70473 0.343C5.67539 0.347 5.64673 0.351333 5.61873 0.356C5.59139 0.36 5.56773 0.363667 5.54773 0.367C5.49239 0.377667 5.44873 0.396 5.41673 0.422C5.38473 0.448 5.36139 0.478667 5.34673 0.514C5.33206 0.549333 5.32273 0.585667 5.31873 0.623C5.34539 0.617 5.37439 0.610667 5.40573 0.604C5.43773 0.597333 5.46839 0.591333 5.49773 0.586C5.52706 0.58 5.55239 0.575333 5.57373 0.572C5.59573 0.568667 5.61039 0.567 5.61773 0.567C5.63173 0.567 5.64039 0.57 5.64373 0.576C5.64773 0.582 5.64973 0.589667 5.64973 0.599C5.64973 0.617 5.62039 0.637 5.56173 0.659C5.50373 0.681 5.42139 0.699667 5.31473 0.715C5.31473 0.737667 5.31506 0.761 5.31573 0.785C5.31706 0.808333 5.31906 0.83 5.32173 0.85C5.32439 0.87 5.32773 0.886 5.33173 0.898C5.33573 0.91 5.34106 0.916 5.34773 0.916C5.36306 0.916 5.38306 0.911333 5.40773 0.902C5.43306 0.892667 5.45939 0.881333 5.48673 0.868C5.51406 0.854667 5.53906 0.841667 5.56173 0.829C5.58506 0.816333 5.60206 0.806333 5.61273 0.799C5.62539 0.791 5.63906 0.782333 5.65373 0.773C5.66839 0.763667 5.67939 0.759 5.68673 0.759C5.69606 0.759 5.70073 0.764333 5.70073 0.775C5.70073 0.781 5.69539 0.792667 5.68473 0.81C5.67473 0.827333 5.66006 0.847 5.64073 0.869C5.62139 0.890333 5.59839 0.911333 5.57173 0.932C5.54573 0.952 5.51639 0.968667 5.48373 0.982C5.45173 0.995333 5.41739 1.002 5.38073 1.002ZM5.9947 0.977C5.97537 0.977 5.95804 0.966 5.9427 0.944C5.92737 0.922 5.9197 0.893667 5.9197 0.859C5.9197 0.821 5.9247 0.780333 5.9347 0.737C5.94537 0.693667 5.95837 0.649667 5.9737 0.605C5.98904 0.559667 6.00404 0.516 6.0187 0.474C6.02204 0.465333 6.0267 0.459 6.0327 0.455C6.03937 0.450333 6.04937 0.448 6.0627 0.448C6.0867 0.448 6.0987 0.459667 6.0987 0.483C6.0987 0.488333 6.09604 0.500333 6.0907 0.519C6.08537 0.537667 6.07837 0.560667 6.0697 0.588C6.0617 0.615333 6.05337 0.645 6.0447 0.677C6.03604 0.708333 6.02837 0.74 6.0217 0.772C6.01504 0.804 6.01037 0.833667 6.0077 0.861C6.01837 0.849667 6.03037 0.832333 6.0437 0.809C6.0577 0.785667 6.0727 0.759333 6.0887 0.73C6.1047 0.7 6.12137 0.67 6.1387 0.64C6.15604 0.609333 6.17337 0.581333 6.1907 0.556C6.2087 0.53 6.22604 0.509333 6.2427 0.494C6.26004 0.478 6.27604 0.47 6.2907 0.47C6.31204 0.47 6.33004 0.476667 6.3447 0.49C6.36004 0.502667 6.3717 0.525333 6.3797 0.558C6.38837 0.59 6.3927 0.635333 6.3927 0.694C6.3927 0.725333 6.3957 0.754667 6.4017 0.782C6.40837 0.809333 6.4187 0.831333 6.4327 0.848C6.44737 0.864 6.46604 0.872 6.4887 0.872C6.5227 0.872 6.55304 0.866 6.5797 0.854C6.60637 0.841333 6.62937 0.827333 6.6487 0.812C6.6687 0.796 6.68537 0.782 6.6987 0.77C6.71204 0.757333 6.72237 0.751 6.7297 0.751C6.74504 0.751 6.7527 0.759 6.7527 0.775C6.7527 0.781667 6.7477 0.792333 6.7377 0.807C6.72837 0.821 6.71504 0.837 6.6977 0.855C6.68104 0.872333 6.6617 0.889333 6.6397 0.906C6.61837 0.922 6.59537 0.935333 6.5707 0.946C6.5467 0.956667 6.52237 0.962 6.4977 0.962C6.4517 0.962 6.41404 0.953 6.3847 0.935C6.35604 0.917 6.3347 0.887333 6.3207 0.846C6.30737 0.804667 6.3007 0.749333 6.3007 0.68C6.3007 0.642 6.29837 0.614333 6.2937 0.597C6.2897 0.579 6.28204 0.567 6.2707 0.561C6.2627 0.575 6.25237 0.595 6.2397 0.621C6.22704 0.646333 6.21237 0.674667 6.1957 0.706C6.1797 0.737333 6.1627 0.769 6.1447 0.801C6.12737 0.832333 6.1097 0.861333 6.0917 0.888C6.0737 0.914667 6.05637 0.936333 6.0397 0.953C6.02304 0.969 6.00804 0.977 5.9947 0.977ZM6.75156 1.264C6.70023 1.264 6.66256 1.259 6.63856 1.249C6.61456 1.239 6.60256 1.22567 6.60256 1.209C6.60256 1.19833 6.6059 1.18967 6.61256 1.183C6.6199 1.17633 6.6289 1.173 6.63956 1.173C6.6509 1.173 6.66723 1.17467 6.68856 1.178C6.7099 1.182 6.7309 1.184 6.75156 1.184C6.82023 1.184 6.87656 1.16367 6.92056 1.123C6.96456 1.08233 6.99823 1.02 7.02156 0.936C7.0449 0.851333 7.06056 0.743333 7.06856 0.612C7.04856 0.652667 7.0259 0.693333 7.00056 0.734C6.9759 0.774 6.94923 0.810667 6.92056 0.844C6.89256 0.876667 6.86356 0.903 6.83356 0.923C6.80356 0.943 6.7739 0.953 6.74456 0.953C6.71656 0.953 6.6959 0.946 6.68256 0.932C6.6699 0.918 6.66356 0.895 6.66356 0.863C6.66356 0.834333 6.67156 0.804 6.68756 0.772C6.70356 0.739333 6.7249 0.706667 6.75156 0.674C6.77823 0.641333 6.80756 0.610333 6.83956 0.581C6.87156 0.551 6.90356 0.524667 6.93556 0.502C6.96823 0.478667 6.99856 0.460333 7.02656 0.447C7.05456 0.433667 7.07723 0.427 7.09456 0.427C7.1119 0.427 7.12523 0.433 7.13456 0.445C7.1439 0.457 7.14856 0.479667 7.14856 0.513C7.14856 0.591 7.1459 0.667 7.14056 0.741C7.1359 0.814333 7.12623 0.882667 7.11156 0.946C7.0969 1.00933 7.0749 1.06467 7.04556 1.112C7.0169 1.16 6.97856 1.19733 6.93056 1.224C6.88256 1.25067 6.8229 1.264 6.75156 1.264ZM7.05056 0.514C7.01723 0.535333 6.9829 0.559333 6.94756 0.586C6.91223 0.612667 6.87923 0.641 6.84856 0.671C6.81856 0.701 6.79423 0.732 6.77556 0.764C6.7569 0.796 6.74756 0.828 6.74756 0.86C6.74756 0.87 6.7539 0.875 6.76656 0.875C6.77656 0.875 6.79023 0.867333 6.80756 0.852C6.82556 0.836 6.84556 0.815 6.86756 0.789C6.88956 0.762333 6.9119 0.733333 6.93456 0.702C6.9579 0.67 6.97956 0.637667 6.99956 0.605C7.01956 0.572333 7.03656 0.542 7.05056 0.514ZM7.3656 1.005C7.35293 1.005 7.3416 1.00033 7.3316 0.991C7.3216 0.981 7.3166 0.965667 7.3166 0.945C7.3166 0.930333 7.3186 0.91 7.3226 0.884C7.3266 0.857333 7.33193 0.828333 7.3386 0.797C7.34527 0.765667 7.35227 0.734667 7.3596 0.704C7.3676 0.672667 7.3756 0.644667 7.3836 0.62C7.3916 0.595333 7.3986 0.577 7.4046 0.565C7.40993 0.555667 7.41493 0.549667 7.4196 0.547C7.42493 0.544333 7.42993 0.543 7.4346 0.543C7.44393 0.543 7.45193 0.546 7.4586 0.552C7.46593 0.558 7.4696 0.569667 7.4696 0.587C7.4696 0.597 7.4676 0.613667 7.4636 0.637C7.46027 0.659667 7.4556 0.686333 7.4496 0.717C7.44427 0.747 7.43827 0.778 7.4316 0.81C7.4256 0.841333 7.4196 0.871333 7.4136 0.9C7.4076 0.928667 7.40293 0.952667 7.3996 0.972C7.39693 0.982667 7.39227 0.991 7.3856 0.997C7.3796 1.00233 7.37293 1.005 7.3656 1.005ZM7.4636 0.452C7.44827 0.452 7.4336 0.447333 7.4196 0.438C7.40627 0.428667 7.3996 0.413667 7.3996 0.393C7.3996 0.375667 7.4036 0.361667 7.4116 0.351C7.42027 0.340333 7.43027 0.332667 7.4416 0.328C7.4536 0.322667 7.46393 0.32 7.4726 0.32C7.48127 0.32 7.49093 0.322 7.5016 0.326C7.51293 0.329333 7.5226 0.336 7.5306 0.346C7.5386 0.355333 7.5426 0.369333 7.5426 0.388C7.5426 0.400667 7.53827 0.412 7.5296 0.422C7.52093 0.431333 7.51027 0.438667 7.4976 0.444C7.4856 0.449333 7.47427 0.452 7.4636 0.452ZM7.68904 0.977C7.66971 0.977 7.65237 0.966 7.63704 0.944C7.62171 0.922 7.61404 0.893667 7.61404 0.859C7.61404 0.821 7.61904 0.780333 7.62904 0.737C7.63971 0.693667 7.65271 0.649667 7.66804 0.605C7.68337 0.559667 7.69837 0.516 7.71304 0.474C7.71637 0.465333 7.72104 0.459 7.72704 0.455C7.73371 0.450333 7.74371 0.448 7.75704 0.448C7.78104 0.448 7.79304 0.459667 7.79304 0.483C7.79304 0.488333 7.79037 0.500333 7.78504 0.519C7.77971 0.537667 7.77271 0.560667 7.76404 0.588C7.75604 0.615333 7.74771 0.645 7.73904 0.677C7.73037 0.708333 7.72271 0.74 7.71604 0.772C7.70937 0.804 7.70471 0.833667 7.70204 0.861C7.71271 0.849667 7.72471 0.832333 7.73804 0.809C7.75204 0.785667 7.76704 0.759333 7.78304 0.73C7.79904 0.7 7.81571 0.67 7.83304 0.64C7.85037 0.609333 7.86771 0.581333 7.88504 0.556C7.90304 0.53 7.92037 0.509333 7.93704 0.494C7.95437 0.478 7.97037 0.47 7.98504 0.47C8.00637 0.47 8.02437 0.476667 8.03904 0.49C8.05437 0.502667 8.06604 0.525333 8.07404 0.558C8.08271 0.59 8.08704 0.635333 8.08704 0.694C8.08704 0.725333 8.09004 0.754667 8.09604 0.782C8.10271 0.809333 8.11304 0.831333 8.12704 0.848C8.14171 0.864 8.16037 0.872 8.18304 0.872C8.21704 0.872 8.24737 0.866 8.27404 0.854C8.30071 0.841333 8.32371 0.827333 8.34304 0.812C8.36304 0.796 8.37971 0.782 8.39304 0.77C8.40637 0.757333 8.41671 0.751 8.42404 0.751C8.43937 0.751 8.44704 0.759 8.44704 0.775C8.44704 0.781667 8.44204 0.792333 8.43204 0.807C8.42271 0.821 8.40937 0.837 8.39204 0.855C8.37537 0.872333 8.35604 0.889333 8.33404 0.906C8.31271 0.922 8.28971 0.935333 8.26504 0.946C8.24104 0.956667 8.21671 0.962 8.19204 0.962C8.14604 0.962 8.10837 0.953 8.07904 0.935C8.05037 0.917 8.02904 0.887333 8.01504 0.846C8.00171 0.804667 7.99504 0.749333 7.99504 0.68C7.99504 0.642 7.99271 0.614333 7.98804 0.597C7.98404 0.579 7.97637 0.567 7.96504 0.561C7.95704 0.575 7.94671 0.595 7.93404 0.621C7.92137 0.646333 7.90671 0.674667 7.89004 0.706C7.87404 0.737333 7.85704 0.769 7.83904 0.801C7.82171 0.832333 7.80404 0.861333 7.78604 0.888C7.76804 0.914667 7.75071 0.936333 7.73404 0.953C7.71737 0.969 7.70237 0.977 7.68904 0.977ZM8.7609 0.523C8.7609 0.554333 8.7519 0.586333 8.7339 0.619C8.7159 0.651 8.6869 0.682 8.6469 0.712C8.60757 0.741333 8.5559 0.767667 8.4919 0.791C8.49457 0.839 8.5069 0.873 8.5289 0.893C8.5509 0.913 8.58757 0.923 8.6389 0.923C8.6789 0.923 8.71757 0.916 8.7549 0.902C8.7929 0.888 8.8279 0.869 8.8599 0.845C8.8539 0.826333 8.84923 0.806 8.8459 0.784C8.84257 0.762 8.8409 0.738667 8.8409 0.714C8.8409 0.660667 8.8479 0.615333 8.8619 0.578C8.8759 0.540667 8.8939 0.512333 8.9159 0.493C8.93857 0.473667 8.96157 0.464 8.9849 0.464C9.0149 0.464 9.03923 0.474667 9.0579 0.496C9.07723 0.516667 9.0869 0.548667 9.0869 0.592C9.0869 0.640667 9.07457 0.688333 9.0499 0.735C9.02523 0.781667 8.99323 0.824 8.9539 0.862C8.9659 0.882667 8.9799 0.898 8.9959 0.908C9.01257 0.918 9.03057 0.923 9.0499 0.923C9.07323 0.923 9.09857 0.916667 9.1259 0.904C9.1539 0.891333 9.18257 0.874667 9.2119 0.854C9.24123 0.833333 9.26957 0.811 9.2969 0.787C9.32423 0.762333 9.34857 0.738333 9.3699 0.715C9.37523 0.708333 9.38057 0.704 9.3859 0.702C9.39123 0.699333 9.39623 0.698 9.4009 0.698C9.4149 0.698 9.4219 0.705667 9.4219 0.721C9.4219 0.732333 9.41623 0.745 9.4049 0.759C9.3829 0.784333 9.35657 0.811333 9.3259 0.84C9.2959 0.868667 9.2639 0.895667 9.2299 0.921C9.19657 0.946333 9.16323 0.967 9.1299 0.983C9.09723 0.999 9.0669 1.007 9.0389 1.007C9.00957 1.007 8.9819 0.999 8.9559 0.983C8.93057 0.967 8.9089 0.944 8.8909 0.914C8.8509 0.942667 8.8079 0.965333 8.7619 0.982C8.7159 0.998667 8.67057 1.007 8.6259 1.007C8.55257 1.007 8.49857 0.987 8.4639 0.947C8.42923 0.907 8.4119 0.852667 8.4119 0.784C8.4119 0.730667 8.41923 0.681667 8.4339 0.637C8.44923 0.591667 8.4689 0.552333 8.4929 0.519C8.5169 0.485 8.54323 0.458667 8.5719 0.44C8.60057 0.421333 8.62857 0.412 8.6559 0.412C8.69123 0.412 8.71757 0.422667 8.7349 0.444C8.75223 0.465333 8.7609 0.491667 8.7609 0.523ZM8.4949 0.722C8.52823 0.705333 8.55957 0.685 8.5889 0.661C8.6189 0.636333 8.6429 0.611 8.6609 0.585C8.67957 0.559 8.6889 0.535333 8.6889 0.514C8.6889 0.504667 8.6869 0.497667 8.6829 0.493C8.6789 0.487667 8.67157 0.485 8.6609 0.485C8.6449 0.485 8.62823 0.492333 8.6109 0.507C8.59357 0.521 8.5769 0.539667 8.5609 0.563C8.5449 0.585667 8.5309 0.611 8.5189 0.639C8.50757 0.667 8.49957 0.694667 8.4949 0.722ZM8.9269 0.784C8.95423 0.753333 8.9759 0.720333 8.9919 0.685C9.0079 0.649667 9.0159 0.614667 9.0159 0.58C9.0159 0.550667 9.00857 0.536 8.9939 0.536C8.97323 0.536 8.95557 0.551 8.9409 0.581C8.9269 0.610333 8.9199 0.648333 8.9199 0.695C8.9199 0.727667 8.92223 0.757333 8.9269 0.784ZM9.36795 1.019C9.35729 1.019 9.34829 1.01467 9.34095 1.006C9.33362 0.997333 9.32995 0.985333 9.32995 0.97C9.32995 0.958667 9.33229 0.94 9.33695 0.914C9.34229 0.887333 9.34795 0.856333 9.35395 0.821C9.36062 0.785667 9.36629 0.749 9.37095 0.711C9.37562 0.672333 9.37795 0.635333 9.37795 0.6C9.37795 0.582667 9.38229 0.57 9.39095 0.562C9.40029 0.553333 9.41062 0.549 9.42195 0.549C9.43262 0.549 9.44062 0.555667 9.44595 0.569C9.45129 0.582333 9.45229 0.609 9.44895 0.649C9.47962 0.581 9.51329 0.526333 9.54995 0.485C9.58729 0.443 9.62429 0.413 9.66095 0.395C9.69762 0.376333 9.73062 0.367 9.75995 0.367C9.77929 0.367 9.79329 0.371 9.80195 0.379C9.81129 0.386333 9.81595 0.394667 9.81595 0.404C9.81595 0.416667 9.81062 0.426667 9.79995 0.434C9.78995 0.440667 9.77229 0.448667 9.74695 0.458C9.71762 0.469333 9.69062 0.482667 9.66595 0.498C9.64195 0.512667 9.61895 0.532 9.59695 0.556C9.57562 0.58 9.55462 0.610667 9.53395 0.648C9.51329 0.684667 9.49262 0.73 9.47195 0.784C9.45129 0.838 9.42929 0.903 9.40595 0.979C9.40195 0.993667 9.39662 1.004 9.38995 1.01C9.38395 1.016 9.37662 1.019 9.36795 1.019Z" fill="black"/>
</svg>
