<?xml version="1.0" encoding="utf-8"?><!-- Uploaded to: SVG Repo, www.svgrepo.com, Generator: SVG Repo Mixer Tools -->
<svg version="1.1" id="Uploaded to svgrepo.com" xmlns="http://www.w3.org/2000/svg" xmlns:xlink="http://www.w3.org/1999/xlink" 
	 width="800px" height="800px" viewBox="0 0 32 32" xml:space="preserve">
<style type="text/css">
	.stone_een{fill:#111918;}
	.st0{fill:#0B1719;}
</style>
<path class="stone_een" d="M6,9V8c0-0.552,0.448-1,1-1h8V5.723C14.405,5.376,14,4.738,14,4V2c0-1.215,1.083-2.176,2.336-1.973
	C17.319,0.187,18,1.111,18,2.107V4c0,0.738-0.405,1.376-1,1.723V7h8c0.552,0,1,0.448,1,1v1c0,0.552-0.448,1-1,1v0H7v0
	C6.448,10,6,9.552,6,9z M7.111,11l1.672,15h14.433l1.672-15H7.111z M25,29l0-1c0-0.552-0.448-0.999-0.999-1H7.999
	C7.448,27,7,27.448,7,28l0,1c-0.552,0-1,0.448-1,1v1c0,0.552,0.448,1,1,1h18c0.552,0,1-0.448,1-1v-1C26,29.448,25.552,29,25,29z"/>
</svg>